<?xml version="1.0" encoding="UTF-8" standalone="no"?>
<svg
   xmlns:osb="http://www.openswatchbook.org/uri/2009/osb"
   xmlns:dc="http://purl.org/dc/elements/1.1/"
   xmlns:cc="http://creativecommons.org/ns#"
   xmlns:rdf="http://www.w3.org/1999/02/22-rdf-syntax-ns#"
   xmlns:svg="http://www.w3.org/2000/svg"
   xmlns="http://www.w3.org/2000/svg"
   xmlns:sodipodi="http://sodipodi.sourceforge.net/DTD/sodipodi-0.dtd"
   xmlns:inkscape="http://www.inkscape.org/namespaces/inkscape"
   sodipodi:docname="drawing.svg"
   inkscape:version="1.0 (4035a4f, 2020-05-01)"
   id="svg8"
   version="1.1"
   viewBox="0 0 100 100"
   height="100mm"
   width="100mm">
  <defs
     id="defs2">
    <linearGradient
       osb:paint="solid"
       id="linearGradient2757">
      <stop
         id="stop2755"
         offset="0"
         style="stop-color:#333333;stop-opacity:1;" />
    </linearGradient>
  </defs>
  <sodipodi:namedview
     inkscape:window-maximized="0"
     inkscape:window-y="0"
     inkscape:window-x="0"
     inkscape:window-height="900"
     inkscape:window-width="1440"
     showgrid="false"
     inkscape:document-rotation="0"
     inkscape:current-layer="layer1"
     inkscape:document-units="mm"
     inkscape:cy="121.19686"
     inkscape:cx="226.7293"
     inkscape:zoom="0.90345321"
     inkscape:pageshadow="2"
     inkscape:pageopacity="0.0"
     borderopacity="1.0"
     bordercolor="#666666"
     pagecolor="#ffffff"
     id="base" />
  <metadata
     id="metadata5">
    <rdf:RDF>
      <cc:Work
         rdf:about="">
        <dc:format>image/svg+xml</dc:format>
        <dc:type
           rdf:resource="http://purl.org/dc/dcmitype/StillImage" />
        <dc:title></dc:title>
      </cc:Work>
    </rdf:RDF>
  </metadata>
  <g
     transform="translate(-41.009926,-11.266465)"
     id="layer1"
     inkscape:groupmode="layer"
     inkscape:label="Layer 1">
    <rect
       y="11.266465"
       x="41.009926"
       height="100"
       width="100"
       id="rect12"
       style="fill:#333333;stroke-width:0.264999;fill-opacity:0.02;opacity:1;stroke:#000000;stroke-opacity:1" />
    <g
       style="font-style:normal;font-variant:normal;font-weight:normal;font-stretch:normal;font-size:50.8px;line-height:1.25;font-family:AppleMyungjo;-inkscape-font-specification:'AppleMyungjo, Normal';font-variant-ligatures:normal;font-variant-caps:normal;font-variant-numeric:normal;font-variant-east-asian:normal;fill:#008080;fill-opacity:1;stroke:none;stroke-width:0.265;stroke-miterlimit:4;stroke-dasharray:none;paint-order:stroke fill markers"
       id="text2763"
       aria-label="FJV">
      <path
         sodipodi:nodetypes="ccccccssscscccccscsssccccssssc"
         id="path2765"
         style="font-style:normal;font-variant:normal;font-weight:normal;font-stretch:normal;font-size:50.8px;font-family:AppleMyungjo;-inkscape-font-specification:'AppleMyungjo, Normal';font-variant-ligatures:normal;font-variant-caps:normal;font-variant-numeric:normal;font-variant-east-asian:normal;fill:#008080;fill-opacity:1;stroke-width:0.265;stroke-miterlimit:4;stroke-dasharray:none;paint-order:stroke fill markers"
         d="m 42.429791,46.565076 v -4.691528 h 96.706229 l 0.49561,15.495821 H 137.897 c -0.72689,-4.030959 -1.71811,-6.789854 -2.97366,-8.276683 -1.42075,-1.685073 -3.73359,-2.52761 -6.93854,-2.52761 h -5.84819 c -1.09034,0 -68.506039,0.52865 -68.506039,1.585951 l -0.175513,14.110346 h 6.632605 c 1.883317,0 3.320586,-0.594732 4.311805,-1.784195 1.02426,-1.222504 1.53639,-2.990179 1.53639,-5.303025 h 1.784195 v 16.553366 h -1.784195 c 0,-5.08826 -1.949398,-7.63239 -5.848195,-7.63239 h -6.632605 l 0.175513,20.82121 c 0.007,0.825987 0.198244,1.404227 0.594732,1.734634 0.396487,0.330407 1.073821,0.49561 2.032,0.49561 h 3.816195 V 89.0299 H 42.429791 v -1.883317 h 3.766634 c 1.453789,0 2.180683,-0.644293 2.180683,-1.932878 V 48.29971 c 0,-1.156423 -0.776455,-1.734634 -2.329366,-1.734634 z" />
      <path
         id="path2767"
         style="font-style:normal;font-variant:normal;font-weight:normal;font-stretch:normal;font-size:50.8px;font-family:AppleMyungjo;-inkscape-font-specification:'AppleMyungjo, Normal';font-variant-ligatures:normal;font-variant-caps:normal;font-variant-numeric:normal;font-variant-east-asian:normal;fill:#008080;fill-opacity:1;stroke-width:0.265;stroke-miterlimit:4;stroke-dasharray:none;paint-order:stroke fill markers"
         d="m 77.27028,54.287656 v -1.883317 h 16.156882 v 1.883317 h -2.32937 q -2.52761,0 -2.52761,1.833756 v 23.838829 q 0,4.311805 -3.07278,7.037659 -3.02322,2.676292 -8.028878,2.676292 -4.311805,0 -7.136781,-2.527609 -2.824975,-2.52761 -2.824975,-6.343805 0,-2.725854 1.338146,-4.410927 1.338147,-1.685073 3.518829,-1.685073 1.685074,0 2.775415,1.04078 1.090341,1.040781 1.090341,2.775415 0,1.437268 -0.842536,2.428488 -0.842537,0.991219 -2.032,0.991219 -0.396488,0 -1.189463,-0.247805 -0.792976,-0.247805 -0.99122,-0.247805 -0.941658,0 -0.941658,1.338147 0,1.982439 1.883317,3.469268 1.883317,1.486829 4.658731,1.486829 2.973659,0 4.757854,-2.131122 1.833756,-2.180683 1.833756,-5.947317 V 56.121412 q 0,-1.139902 -0.644293,-1.486829 -0.644292,-0.346927 -2.279805,-0.346927 z" />
      <path
         id="path2769"
         style="font-style:normal;font-variant:normal;font-weight:normal;font-stretch:normal;font-size:50.8px;font-family:AppleMyungjo;-inkscape-font-specification:'AppleMyungjo, Normal';font-variant-ligatures:normal;font-variant-caps:normal;font-variant-numeric:normal;font-variant-east-asian:normal;fill:#008080;fill-opacity:1;stroke-width:0.265;stroke-miterlimit:4;stroke-dasharray:none;paint-order:stroke fill markers"
         d="m 95.138852,54.287656 v -1.883317 h 15.413458 v 1.883317 h -3.12234 q -2.37893,0 -2.37893,1.387708 0,0.446048 0.14869,0.941658 0.14868,0.446049 0.49561,1.090341 l 9.61483,24.582244 8.52448,-23.442341 q 0.24781,-0.743415 0.24781,-1.685073 0,-2.874537 -2.97366,-2.874537 h -2.47805 v -1.883317 h 13.48059 v 1.883317 h -1.04078 q -2.9241,0 -4.75786,4.956098 l -11.2999,30.628682 h -1.83376 L 100.24363,57.162193 q -0.594728,-1.585951 -1.486828,-2.230244 -0.8921,-0.644293 -2.47805,-0.644293 z" />
    </g>
  </g>
</svg>
