<?xml version="1.0" encoding="UTF-8" standalone="no"?>
<svg
   xmlns:dc="http://purl.org/dc/elements/1.1/"
   xmlns:cc="http://creativecommons.org/ns#"
   xmlns:rdf="http://www.w3.org/1999/02/22-rdf-syntax-ns#"
   xmlns:svg="http://www.w3.org/2000/svg"
   xmlns="http://www.w3.org/2000/svg"
   xmlns:sodipodi="http://sodipodi.sourceforge.net/DTD/sodipodi-0.dtd"
   xmlns:inkscape="http://www.inkscape.org/namespaces/inkscape"
   sodipodi:docname="logo-square.svg"
   inkscape:version="1.0 (4035a4f, 2020-05-01)"
   id="svg8"
   version="1.1"
   viewBox="0 0 13.69038 13.69038"
   height="13.69038mm"
   width="13.69038mm">
  <defs
     id="defs2">
    <filter
       height="1.0014329"
       y="-0.00071643526"
       width="1.0006955"
       x="-0.00034774325"
       id="filter1016"
       style="color-interpolation-filters:sRGB"
       inkscape:collect="always">
      <feGaussianBlur
         id="feGaussianBlur1018"
         stdDeviation="0.0031698062"
         inkscape:collect="always" />
    </filter>
    <filter
       height="1.6181598"
       y="-0.30907992"
       width="1.0284767"
       x="-0.014238373"
       id="filter1125"
       style="color-interpolation-filters:sRGB"
       inkscape:collect="always">
      <feGaussianBlur
         id="feGaussianBlur1127"
         stdDeviation="0.15125856"
         inkscape:collect="always" />
    </filter>
  </defs>
  <sodipodi:namedview
     inkscape:pagecheckerboard="true"
     inkscape:window-maximized="0"
     inkscape:window-y="23"
     inkscape:window-x="0"
     inkscape:window-height="775"
     inkscape:window-width="1252"
     showgrid="false"
     inkscape:document-rotation="0"
     inkscape:current-layer="text835"
     inkscape:document-units="mm"
     inkscape:cy="15.020454"
     inkscape:cx="34.708762"
     inkscape:zoom="5.9566388"
     inkscape:pageshadow="2"
     inkscape:pageopacity="0"
     borderopacity="0.06666667"
     bordercolor="#666666"
     pagecolor="#f5f5f5"
     id="base" />
  <metadata
     id="metadata5">
    <rdf:RDF>
      <cc:Work
         rdf:about="">
        <dc:format>image/svg+xml</dc:format>
        <dc:type
           rdf:resource="http://purl.org/dc/dcmitype/StillImage" />
        <dc:title></dc:title>
      </cc:Work>
    </rdf:RDF>
  </metadata>
  <g
     transform="translate(-53.827494,-120.59067)"
     id="layer1"
     inkscape:groupmode="layer"
     inkscape:label="Layer 1">
    <g
       style="font-style:normal;font-weight:normal;font-size:10.5833px;line-height:1.25;font-family:sans-serif;fill:#000000;fill-opacity:1;stroke:none;stroke-width:0.264583;filter:url(#filter1016)"
       id="text835"
       aria-label="FlowJV">
      <path
         sodipodi:nodetypes="ccccccssscscccccscsssccccssscc"
         id="path1022"
         style="font-style:normal;font-variant:normal;font-weight:normal;font-stretch:normal;font-size:8.81943px;font-family:AppleMyungjo;-inkscape-font-specification:'AppleMyungjo, Normal';font-variant-ligatures:normal;font-variant-caps:normal;font-variant-numeric:normal;font-variant-east-asian:normal;fill:#005f5f;fill-opacity:1;stroke-width:0.264583"
         d="m 53.827497,124.11575 v -0.32697 h 13.604335 l 0.08604,2.20271 h -0.301151 c -0.126197,-0.69982 -0.298283,-1.1788 -0.51626,-1.43692 -0.246657,-0.29255 -0.648192,-0.43882 -1.204605,-0.43882 h -1.01531 c -0.189295,0 -8.708475,0.0918 -8.708475,0.27534 v 2.81561 h 0.542072 c 0.326964,0 0.576489,-0.10325 0.748576,-0.30976 0.177823,-0.21224 0.266734,-0.51913 0.266734,-0.92066 h 0.309755 v 2.87384 h -0.309755 c 0,-0.88337 -0.338437,-1.32506 -1.01531,-1.32506 h -0.542072 v 2.42642 c 0,0.14341 0.03442,0.24379 0.103251,0.30115 0.06883,0.0573 0.186427,0.086 0.352778,0.086 h 0.662532 v 0.32697 h -3.063138 v -0.32697 h 0.653928 c 0.252393,0 0.37859,-0.11186 0.37859,-0.33557 v -5.5862 c 0,-0.20077 -0.134801,-0.30115 -0.404403,-0.30115 z" />
      <path
         sodipodi:nodetypes="ccccssscscssssscsssscscssccc"
         id="path1030"
         style="font-style:normal;font-variant:normal;font-weight:normal;font-stretch:normal;font-size:5.64444px;font-family:AppleMyungjo;-inkscape-font-specification:'AppleMyungjo, Normal';font-variant-ligatures:normal;font-variant-caps:normal;font-variant-numeric:normal;font-variant-east-asian:normal;fill:#005f5f;fill-opacity:1"
         d="m 59.72094,126.13912 v -0.20926 h 1.795207 v 0.20926 h -0.258818 c -0.18723,0 -0.280845,0.0679 -0.280845,0.20375 v 3.31503 c 0,0.31939 -0.113807,0.58005 -0.34142,0.78196 -0.223942,0.19824 -0.521308,0.29736 -0.892097,0.29736 -0.319393,0 -0.583718,-0.0936 -0.792975,-0.28084 -0.209257,-0.18723 -0.313886,-0.42219 -0.313886,-0.70487 0,-0.20191 0.04956,-0.36528 0.148683,-0.4901 0.09912,-0.12482 0.229449,-0.18723 0.390981,-0.18723 0.12482,0 0.227613,0.0386 0.308379,0.11564 0.08077,0.0771 0.121149,0.17989 0.121149,0.30838 0,0.10647 -0.0312,0.19641 -0.09361,0.26983 -0.06241,0.0734 -0.137666,0.11014 -0.225778,0.11014 -0.02937,0 -0.07342,-0.009 -0.132162,-0.0275 -0.05874,-0.0183 -0.09545,-0.0275 -0.110136,-0.0275 -0.06975,0 -0.104628,0.0496 -0.104628,0.14868 0,0.14685 0.06975,0.27534 0.209257,0.38548 0.139505,0.11013 0.31205,0.1652 0.517636,0.1652 0.220271,0 0.396488,-0.0789 0.52865,-0.23679 0.135834,-0.16153 0.203751,-0.3818 0.203751,-0.66081 v -3.28199 c 0,-0.0844 -0.02386,-0.1395 -0.07159,-0.1652 -0.04773,-0.0257 -0.132164,-0.0386 -0.253312,-0.0386 z" />
      <path
         sodipodi:nodetypes="ccccssccccssccccsccccccc"
         id="path1032"
         style="font-style:normal;font-variant:normal;font-weight:normal;font-stretch:normal;font-size:5.64444px;font-family:AppleMyungjo;-inkscape-font-specification:'AppleMyungjo, Normal';font-variant-ligatures:normal;font-variant-caps:normal;font-variant-numeric:normal;font-variant-east-asian:normal;fill:#005f5f;fill-opacity:1"
         d="m 61.706337,126.13912 v -0.20926 h 1.712605 v 0.20926 h -0.346926 c -0.176217,0 -0.264325,0.0514 -0.264325,0.15419 0,0.0331 0.0055,0.0679 0.01652,0.10463 0.01101,0.0331 0.02937,0.0734 0.05507,0.12115 l 1.068313,3.39763 0.947165,-3.27098 c 0.01835,-0.0551 0.02753,-0.11748 0.02753,-0.18723 0,-0.21293 -0.110136,-0.31939 -0.330407,-0.31939 h -0.275338 v -0.20926 h 1.497842 v 0.20926 h -0.115643 c -0.216599,0 -0.392816,0.18356 -0.52865,0.55068 l -1.255543,4.06945 h -0.203751 l -1.437267,-4.30074 c -0.04405,-0.11748 -0.09912,-0.20008 -0.165203,-0.2478 -0.06608,-0.0477 -0.15786,-0.0716 -0.275339,-0.0716 z" />
    </g>
  </g>
</svg>
