<?xml version="1.0" encoding="UTF-8" standalone="no"?>
<svg
   xmlns:dc="http://purl.org/dc/elements/1.1/"
   xmlns:cc="http://creativecommons.org/ns#"
   xmlns:rdf="http://www.w3.org/1999/02/22-rdf-syntax-ns#"
   xmlns:svg="http://www.w3.org/2000/svg"
   xmlns="http://www.w3.org/2000/svg"
   xmlns:sodipodi="http://sodipodi.sourceforge.net/DTD/sodipodi-0.dtd"
   xmlns:inkscape="http://www.inkscape.org/namespaces/inkscape"
   sodipodi:docname="logo.svg"
   inkscape:version="1.0 (4035a4f, 2020-05-01)"
   id="svg8"
   version="1.1"
   viewBox="0 0 26.111891 7.7968402"
   height="7.7968402mm"
   width="26.111891mm">
  <defs
     id="defs2">
    <filter
       height="1.0014329"
       y="-0.00071643526"
       width="1.0006955"
       x="-0.00034774325"
       id="filter1016"
       style="color-interpolation-filters:sRGB"
       inkscape:collect="always">
      <feGaussianBlur
         id="feGaussianBlur1018"
         stdDeviation="0.0031698062"
         inkscape:collect="always" />
    </filter>
    <filter
       style="color-interpolation-filters:sRGB;"
       inkscape:label="Drop Shadow"
       id="filter1415">
      <feFlood
         flood-opacity="1"
         flood-color="rgb(255,255,255)"
         result="flood"
         id="feFlood1405" />
      <feComposite
         in="SourceGraphic"
         in2="flood"
         operator="in"
         result="composite1"
         id="feComposite1407" />
      <feGaussianBlur
         in="composite1"
         stdDeviation="0"
         result="blur"
         id="feGaussianBlur1409" />
      <feOffset
         dx="0"
         dy="0"
         result="offset"
         id="feOffset1411" />
      <feComposite
         in="SourceGraphic"
         in2="offset"
         operator="over"
         result="fbSourceGraphic"
         id="feComposite1413" />
      <feColorMatrix
         result="fbSourceGraphicAlpha"
         in="fbSourceGraphic"
         values="0 0 0 -1 0 0 0 0 -1 0 0 0 0 -1 0 0 0 0 1 0"
         id="feColorMatrix1453" />
      <feFlood
         id="feFlood1455"
         flood-opacity="1"
         flood-color="rgb(255,255,255)"
         result="flood"
         in="fbSourceGraphic" />
      <feComposite
         in2="flood"
         id="feComposite1457"
         in="fbSourceGraphic"
         operator="out"
         result="composite1" />
      <feGaussianBlur
         id="feGaussianBlur1459"
         in="composite1"
         stdDeviation="4.2042"
         result="blur" />
      <feOffset
         id="feOffset1461"
         dx="0"
         dy="0"
         result="offset" />
      <feComposite
         in2="fbSourceGraphic"
         id="feComposite1463"
         in="offset"
         operator="atop"
         result="fbSourceGraphic" />
      <feColorMatrix
         result="fbSourceGraphicAlpha"
         in="fbSourceGraphic"
         values="0 0 0 -1 0 0 0 0 -1 0 0 0 0 -1 0 0 0 0 1 0"
         id="feColorMatrix1465" />
      <feFlood
         id="feFlood1467"
         flood-opacity="1"
         flood-color="rgb(255,255,255)"
         result="flood"
         in="fbSourceGraphic" />
      <feComposite
         in2="flood"
         id="feComposite1469"
         in="fbSourceGraphic"
         operator="out"
         result="composite1" />
      <feGaussianBlur
         id="feGaussianBlur1471"
         in="composite1"
         stdDeviation="4.2042"
         result="blur" />
      <feOffset
         id="feOffset1473"
         dx="0"
         dy="0"
         result="offset" />
      <feComposite
         in2="fbSourceGraphic"
         id="feComposite1475"
         in="offset"
         operator="atop"
         result="fbSourceGraphic" />
      <feColorMatrix
         result="fbSourceGraphicAlpha"
         in="fbSourceGraphic"
         values="0 0 0 -1 0 0 0 0 -1 0 0 0 0 -1 0 0 0 0 1 0"
         id="feColorMatrix1477" />
      <feFlood
         id="feFlood1479"
         flood-opacity="1"
         flood-color="rgb(255,255,255)"
         result="flood"
         in="fbSourceGraphic" />
      <feComposite
         in2="flood"
         id="feComposite1481"
         in="fbSourceGraphic"
         operator="out"
         result="composite1" />
      <feGaussianBlur
         id="feGaussianBlur1483"
         in="composite1"
         stdDeviation="4.2042"
         result="blur" />
      <feOffset
         id="feOffset1485"
         dx="0"
         dy="0"
         result="offset" />
      <feComposite
         in2="fbSourceGraphic"
         id="feComposite1487"
         in="offset"
         operator="atop"
         result="composite2" />
    </filter>
  </defs>
  <sodipodi:namedview
     inkscape:window-maximized="0"
     inkscape:window-y="23"
     inkscape:window-x="0"
     inkscape:window-height="775"
     inkscape:window-width="1252"
     showgrid="false"
     inkscape:document-rotation="0"
     inkscape:current-layer="text835"
     inkscape:document-units="mm"
     inkscape:cy="26.301965"
     inkscape:cx="43.809439"
     inkscape:zoom="6.8027766"
     inkscape:pageshadow="2"
     inkscape:pageopacity="0.0"
     borderopacity="1.0"
     bordercolor="#666666"
     pagecolor="#ffffff"
     id="base" />
  <metadata
     id="metadata5">
    <rdf:RDF>
      <cc:Work
         rdf:about="">
        <dc:format>image/svg+xml</dc:format>
        <dc:type
           rdf:resource="http://purl.org/dc/dcmitype/StillImage" />
        <dc:title />
      </cc:Work>
    </rdf:RDF>
  </metadata>
  <g
     transform="translate(-53.827494,-111.00814)"
     id="layer1"
     inkscape:groupmode="layer"
     inkscape:label="Layer 1">
    <g
       style="font-style:normal;font-weight:normal;font-size:10.5833px;line-height:1.25;font-family:sans-serif;fill:#000000;fill-opacity:1;stroke:none;stroke-width:0.264583;filter:url(#filter1016)"
       id="text835"
       aria-label="FlowJV">
      <path
         sodipodi:nodetypes="ccccccssscscccccscsssccccssscc"
         id="path1022"
         style="font-style:normal;font-variant:normal;font-weight:normal;font-stretch:normal;font-size:8.81943000000000055px;font-family:AppleMyungjo;-inkscape-font-specification:'AppleMyungjo, Normal';font-variant-ligatures:normal;font-variant-caps:normal;font-variant-numeric:normal;font-variant-east-asian:normal;fill:#ffffff;fill-opacity:1;stroke-width:0.264583"
         d="m 53.827497,111.33511 v -0.32697 h 18.712431 l 0.08604,2.20271 h -0.301151 c -0.126197,-0.69982 -0.298283,-1.1788 -0.51626,-1.43692 -0.246657,-0.29255 -0.648192,-0.43882 -1.204605,-0.43882 h -1.01531 c -0.189295,0 -13.816571,0.0918 -13.816571,0.27534 v 3.61513 h 0.542072 c 0.326964,0 0.576489,-0.10325 0.748576,-0.30976 0.177823,-0.21224 0.266734,-0.51913 0.266734,-0.92066 h 0.309755 v 2.87384 h -0.309755 c 0,-0.88337 -0.338437,-1.32506 -1.01531,-1.32506 h -0.542072 v 2.42642 c 0,0.14341 0.03442,0.24379 0.103251,0.30115 0.06883,0.0573 0.186427,0.086 0.352778,0.086 h 0.662532 v 0.32697 h -3.063138 v -0.32697 h 0.653928 c 0.252393,0 0.37859,-0.11186 0.37859,-0.33557 v -6.38572 c 0,-0.20077 -0.134801,-0.30115 -0.404403,-0.30115 z" />
      <path
         id="path1024"
         style="font-style:normal;font-variant:normal;font-weight:normal;font-stretch:normal;font-size:8.81943000000000055px;font-family:AppleMyungjo;-inkscape-font-specification:'AppleMyungjo, Normal';font-variant-ligatures:normal;font-variant-caps:normal;font-variant-numeric:normal;font-variant-east-asian:normal;fill:#ffffff;fill-opacity:1;stroke-width:0.264583"
         d="m 59.434389,112.32592 1.5918,-0.086 v 5.84233 q 0,0.12046 0.09465,0.1979 0.09465,0.0774 0.240921,0.0774 h 0.421612 v 0.32697 h -2.280145 v -0.32697 h 0.404403 q 0.404403,0 0.404403,-0.36138 v -4.89586 q 0,-0.21511 -0.137669,-0.33557 -0.137669,-0.12046 -0.37859,-0.12046 h -0.361382 z" />
      <path
         id="path1026"
         style="font-style:normal;font-variant:normal;font-weight:normal;font-stretch:normal;font-size:8.81943000000000055px;font-family:AppleMyungjo;-inkscape-font-specification:'AppleMyungjo, Normal';font-variant-ligatures:normal;font-variant-caps:normal;font-variant-numeric:normal;font-variant-east-asian:normal;fill:#ffffff;fill-opacity:1;stroke-width:0.264583;filter:url(#filter1415)"
         d="m 63.980042,114.52863 q 0.826015,0 1.368087,0.5937 0.550677,0.5937 0.550677,1.55738 0,0.94648 -0.559281,1.54017 -0.559281,0.5851 -1.368088,0.5851 -0.808806,0 -1.350878,-0.5937 -0.533468,-0.6023 -0.533468,-1.54017 0,-0.93788 0.533468,-1.54018 0.533468,-0.6023 1.359483,-0.6023 z m 0,0.30975 q -0.524864,0 -0.817411,0.46464 -0.283942,0.45603 -0.283942,1.32506 0,0.92067 0.283942,1.3939 0.283943,0.47324 0.826015,0.47324 0.542072,0 0.826015,-0.48184 0.292547,-0.48184 0.292547,-1.4025 0,-0.86904 -0.301151,-1.31647 -0.292547,-0.45603 -0.826015,-0.45603 z" />
      <path
         id="path1028"
         style="font-style:normal;font-variant:normal;font-weight:normal;font-stretch:normal;font-size:8.81943000000000055px;font-family:AppleMyungjo;-inkscape-font-specification:'AppleMyungjo, Normal';font-variant-ligatures:normal;font-variant-caps:normal;font-variant-numeric:normal;font-variant-east-asian:normal;fill:#ffffff;fill-opacity:1;stroke-width:0.264583"
         d="m 66.16959,114.95024 v -0.30115 h 1.772491 v 0.30115 H 67.70116 q -0.309756,0 -0.309756,0.1979 0,0.0344 0.0086,0.0774 0.01721,0.0688 0.03442,0.12046 l 0.903453,2.28015 0.782994,-2.16829 q -0.146274,-0.30976 -0.249526,-0.3958 -0.137669,-0.11186 -0.473237,-0.11186 v -0.30115 h 1.953181 v 0.30115 h -0.172087 q -0.206503,0 -0.301151,0.043 -0.08604,0.0344 -0.08604,0.16348 0,0.0947 0.03442,0.1893 l 0.920663,2.28015 0.731367,-2.02202 q 0.01721,-0.0516 0.04302,-0.16348 0.02581,-0.12046 0.02581,-0.18069 0,-0.16349 -0.13767,-0.23232 -0.129064,-0.0774 -0.404403,-0.0774 v -0.30115 h 1.583196 v 0.30115 q -0.292547,0.0516 -0.447425,0.18069 -0.154878,0.12907 -0.249526,0.41301 l -1.178792,3.26104 h -0.249525 l -1.135771,-2.82222 -1.01531,2.82222 H 68.06254 l -1.436922,-3.56219 q -0.07744,-0.18069 -0.172086,-0.23232 -0.08604,-0.0602 -0.283943,-0.0602 z" />
      <path
         id="path1030"
         style="font-style:normal;font-variant:normal;font-weight:normal;font-stretch:normal;font-size:5.64444000000000035px;font-family:AppleMyungjo;-inkscape-font-specification:'AppleMyungjo, Normal';font-variant-ligatures:normal;font-variant-caps:normal;font-variant-numeric:normal;font-variant-east-asian:normal;fill:#ffffff;fill-opacity:1"
         d="m 73.845936,114.82427 v -0.20926 h 1.795207 v 0.20926 h -0.258818 q -0.280845,0 -0.280845,0.20375 v 2.64876 q 0,0.47909 -0.34142,0.78196 -0.335913,0.29736 -0.892097,0.29736 -0.479089,0 -0.792975,-0.28084 -0.313886,-0.28085 -0.313886,-0.70487 0,-0.30287 0.148683,-0.4901 0.148683,-0.18723 0.390981,-0.18723 0.18723,0 0.308379,0.11564 0.121149,0.11564 0.121149,0.30838 0,0.1597 -0.09361,0.26983 -0.09361,0.11014 -0.225778,0.11014 -0.04405,0 -0.132162,-0.0275 -0.08811,-0.0275 -0.110136,-0.0275 -0.104628,0 -0.104628,0.14868 0,0.22027 0.209257,0.38548 0.209257,0.1652 0.517636,0.1652 0.330407,0 0.52865,-0.23679 0.203751,-0.2423 0.203751,-0.66081 v -2.61572 q 0,-0.12665 -0.07159,-0.1652 -0.07159,-0.0386 -0.253312,-0.0386 z" />
      <path
         id="path1032"
         style="font-style:normal;font-variant:normal;font-weight:normal;font-stretch:normal;font-size:5.64444000000000035px;font-family:AppleMyungjo;-inkscape-font-specification:'AppleMyungjo, Normal';font-variant-ligatures:normal;font-variant-caps:normal;font-variant-numeric:normal;font-variant-east-asian:normal;fill:#ffffff;fill-opacity:1"
         d="m 75.831333,114.82427 v -0.20926 h 1.712605 v 0.20926 h -0.346926 q -0.264325,0 -0.264325,0.15419 0,0.0496 0.01652,0.10463 0.01652,0.0496 0.05507,0.12115 l 1.068313,2.73136 0.947165,-2.60471 q 0.02753,-0.0826 0.02753,-0.18723 0,-0.31939 -0.330407,-0.31939 H 78.44154 v -0.20926 h 1.497842 v 0.20926 h -0.115643 q -0.324899,0 -0.52865,0.55068 l -1.255543,3.40318 h -0.203751 l -1.437267,-3.63447 q -0.06608,-0.17621 -0.165203,-0.2478 -0.09912,-0.0716 -0.275339,-0.0716 z" />
    </g>
  </g>
</svg>
